With: Devon Sawa, Ali Larter and Kerr Smith

Scholier Alex zit met zijn klas in een Boeing 747 te wachten op de start. Ineens voorziet Alex dat het toestel zal ontploffen. Hij raakt in paniek en wordt met een paar medeleerlingen en hun lerares het vliegtuig uitgezet. Enkele ogenblikken later zien ze vanaf de grond 'hun' toestel opstijgen en veranderen in een vuurbal. Kort daarna sterft één van de overlevenden. Als daarna de volgende omkomt, begint Alex een angstaanjagend vermoeden te krijgen. Stel nu dat het de bedoeling was dat ze allemaal een gruwelijke dood zouden sterven. Dat de 'Dood' hen alsnog komt halen. Dat er niets tegen te doen was. Of kun je de 'Dood' te slim af zijn?

After a teenager has a terrifying vision of him and his friends dying in a plane crash, he prevents the accident only to have Death hunt them down, one by one. 

------------------ Dutch Friends ------------------
You can find my Friends at: http://www.Film-Test.nl 
------ They got my dutchs subs ---- and more ------

General:

Complete name                    : Final Destination\Final Destination.avi
Format                           : AVI
Format/Info                      : Audio Video Interleave
File size                        : 1.37 GiB
Duration                         : 1h 33mn
Overall bit rate                 : 2 092 Kbps

Video:

Format                           : MPEG-4 Visual
Format profile                   : Simple@L3
Format settings, BVOP            : No
Format settings, QPel            : No
Format settings, GMC             : No warppoints
Format settings, Matrix          : Default (H.263)
Codec ID                         : XVID
Codec ID/Hint                    : XviD
Duration                         : 1h 33mn
Bit rate                         : 1 633 Kbps
Width                            : 652 pixels
Height                           : 352 pixels
Display aspect ratio             : 1.852
Frame rate                       : 25.000 fps
Color space                      : YUV
Chroma subsampling               : 4:2:0
Bit depth                        : 8 bits
Scan type                        : Progressive
Bits/(Pixel*Frame)               : 0.285
Stream size                      : 1.07 GiB (78%)
Writing library                  : XviD 1.1.2 (UTC 2006-11-01)

Audio:

Format                           : AC-3
Format/Info                      : Audio Coding 3
Mode extension                   : CM (complete main)
Codec ID                         : 2000
Duration                         : 1h 33mn
Bit rate mode                    : Constant
Bit rate                         : 448 Kbps
Channel(s)                       : 6 channels
Channel positions                : Front: L C R, Side: L R, LFE
Sampling rate                    : 48.0 KHz
Bit depth                        : 16 bits
Stream size                      : 301 MiB (21%)
Alignment                        : Aligned on interleaves
Interleave, duration             : 32 ms (0.80 video frame)
Interleave, preload duration     : 256 ms


